<svg width="210" height="205" viewBox="0 0 210 205" fill="none" xmlns="http://www.w3.org/2000/svg">
  <defs>
    <linearGradient id="awaLogoGradient" x1="24" y1="16" x2="186" y2="188" gradientUnits="userSpaceOnUse">
      <stop offset="0%" stop-color="#9A98B1" />
      <stop offset="50%" stop-color="#A7A5BA" />
      <stop offset="100%" stop-color="#6D6B85" />
    </linearGradient>
  </defs>
  <path d="M178.002 111.358C208.684 69.838 219.282 28.5993 201.064 9.79811C182.598 -9.25993 140.049 0.440505 96.8335 30.6003C95.4163 28.6423 93.8251 26.7707 92.0587 25.0079C74.1897 7.17544 45.2182 7.17543 27.3493 25.0079C9.48052 42.8403 9.48046 71.7522 27.3493 89.5847C28.8271 91.0595 30.3812 92.4123 31.9984 93.6432C1.31702 135.163 -9.28191 176.4 8.93538 195.201C27.4019 214.26 69.9514 204.56 113.167 174.4C114.585 176.358 116.176 178.23 117.943 179.993C135.812 197.825 164.783 197.825 182.652 179.993C200.521 162.16 200.521 133.248 182.652 115.416C181.174 113.941 179.619 112.588 178.002 111.358ZM113.086 174.28C91.97 176.636 70.0139 169.735 53.8212 153.575C37.6277 137.415 30.7132 115.502 33.0746 94.428C33.1207 94.017 33.1706 93.6065 33.2237 93.1962C33.2837 92.7325 33.3479 92.2692 33.417 91.8064C42.9469 27.93 96.3323 48.7368 99.9378 108.345C100.776 122.199 102.008 157.691 113.086 174.28ZM156.18 51.4261C173.066 68.2777 179.863 91.3842 176.573 113.272C167.643 172.689 107.576 161.505 106.055 100.104C105.352 71.7283 108.152 49.1705 96.9084 30.7223C118.027 28.3649 139.985 35.265 156.18 51.4261Z" fill="url(#awaLogoGradient)"/>
</svg>
